<svg xmlns="http://www.w3.org/2000/svg" viewBox="0 0 240 360">
	<rect fill="#eee" width="240" height="360"/>
	<path fill="#ddd" d="M136.61,202.51c-.9,2.84-1.39,7.26-1.46,13.25h-30.31c.45-12.65,1.65-21.39,3.59-26.21,1.95-4.83,6.96-10.38,15.04-16.67l8.19-6.4c2.69-2.02,4.86-4.23,6.51-6.62,2.99-4.12,4.49-8.64,4.49-13.58,0-5.69-1.67-10.87-5-15.55-3.33-4.68-9.41-7.02-18.24-7.02s-14.84,2.88-18.47,8.64c-3.63,5.76-5.44,11.75-5.44,17.96h-32.44c.9-21.33,8.34-36.45,22.34-45.35,8.83-5.69,19.68-8.53,32.56-8.53,16.91,0,30.97,4.04,42.15,12.12,11.19,8.08,16.78,20.06,16.78,35.92,0,9.73-2.43,17.93-7.3,24.59-2.85,4.04-8.31,9.21-16.39,15.49l-7.97,6.17c-4.34,3.37-7.22,7.3-8.64,11.79ZM137.51,263.58h-33.45v-32.44h33.45v32.44Z"/>
</svg>
